<svg width="365" height="365" viewBox="0 0 365 365" fill="none" xmlns="http://www.w3.org/2000/svg">
<path d="M182.5 358.5C205.613 358.5 228.499 353.948 249.852 345.103C271.206 336.258 290.608 323.294 306.951 306.951C323.294 290.608 336.258 271.206 345.103 249.852C353.948 228.499 358.5 205.613 358.5 182.5C358.5 159.387 353.948 136.501 345.103 115.148C336.258 93.7944 323.294 74.3923 306.951 58.0492C290.608 41.7061 271.206 28.742 249.852 19.8972C228.499 11.0524 205.613 6.5 182.5 6.5C135.822 6.5 91.0556 25.0428 58.0492 58.0492C25.0428 91.0556 6.5 135.822 6.5 182.5C6.5 229.178 25.0428 273.944 58.0492 306.951C91.0556 339.957 135.822 358.5 182.5 358.5ZM182.5 358.5C216.933 358.535 250.611 348.413 279.32 329.401C277.051 310.493 267.94 293.068 253.706 280.416C239.472 267.764 221.1 260.758 202.056 260.722H162.944C143.9 260.758 125.528 267.764 111.294 280.416C97.0602 293.068 87.9493 310.493 85.6804 329.401C114.389 348.413 148.067 358.535 182.5 358.5ZM241.167 143.389C241.167 158.948 234.986 173.87 223.984 184.872C212.981 195.875 198.059 202.055 182.5 202.055C166.941 202.055 152.019 195.875 141.016 184.872C130.014 173.87 123.833 158.948 123.833 143.389C123.833 127.829 130.014 112.907 141.016 101.905C152.019 90.9031 166.941 84.7222 182.5 84.7222C198.059 84.7222 212.981 90.9031 223.984 101.905C234.986 112.907 241.167 127.829 241.167 143.389Z" stroke="#FFF0FE" stroke-opacity="0.63" stroke-width="13" stroke-linecap="round" stroke-linejoin="round"/>
</svg>
