<svg width="104" height="93" viewBox="0 0 104 93" fill="none" xmlns="http://www.w3.org/2000/svg">
<path d="M23.5404 4.5974C25.4508 3.36159 28.7229 2.2245 33.368 3.79718C39.4638 5.86102 45.9321 12.4936 50.6737 21.5349C52.0337 24.1072 53.1767 26.7823 54.0909 29.533L57.8629 18.392C58.1167 17.6423 58.6651 17.0265 59.3873 16.6802C60.1096 16.3338 60.9465 16.2852 61.7141 16.5451C62.4817 16.805 63.117 17.352 63.4803 18.0659C63.8435 18.7798 63.905 19.602 63.6512 20.3517L59.8792 31.4927C62.2716 29.8622 64.7998 28.43 67.438 27.2107C76.7004 22.9108 85.8677 21.5719 91.9743 23.6394C96.6194 25.2121 98.5278 28.1032 99.2945 30.2454C100.713 34.1795 100.82 40.2458 90.8526 55.4294C85.8131 63.1086 79.8467 64.7001 75.4147 64.5466C76.4305 68.7687 75.7174 73.1899 73.4297 76.8536C71.142 80.5174 67.4636 83.1292 63.1903 84.124C58.9169 85.1188 54.3922 84.4166 50.595 82.1694C46.7977 79.9222 44.0332 76.3106 42.8996 72.1159C39.4508 74.7591 35.0609 75.9485 30.6795 75.4266C26.298 74.9048 22.2774 72.7138 19.4874 69.3276C16.6973 65.9413 15.3621 61.6321 15.7707 57.3321C16.1793 53.0321 18.2987 49.0871 21.6705 46.3505C18.0544 43.7871 14.2881 38.8925 14.9466 29.73C15.6786 19.5644 17.2763 8.62851 23.5404 4.5974ZM55.5966 77.4899C58.1797 78.3155 60.9715 78.1557 63.4113 77.0428C65.8512 75.9299 67.7585 73.9462 68.7504 71.49C69.7423 69.0338 69.7453 66.2869 68.7588 63.8009C67.7723 61.3148 65.8693 59.2736 63.4319 58.0871C63.0604 57.9232 62.7249 57.6887 62.445 57.3973C62.165 57.1059 61.9463 56.7634 61.8016 56.39C61.6568 56.0166 61.589 55.6196 61.602 55.2224C61.6151 54.8252 61.7087 54.4356 61.8775 54.0765C62.0462 53.7173 62.2867 53.3959 62.5849 53.1308C62.8831 52.8658 63.233 52.6626 63.6141 52.533C63.9952 52.4033 64.4 52.35 64.8046 52.376C65.2093 52.402 65.6057 52.5069 65.9708 52.6845C68.5804 53.8839 70.8394 55.7205 72.5288 58.0162C75.5677 59.0805 80.9147 59.4494 85.713 52.1375C88.1127 48.4797 95.3982 37.3467 93.5469 32.167C93.2497 31.3417 92.56 30.1393 90.0602 29.293C80.1948 25.9529 58.2821 36.2099 55.0772 45.6761L48.8168 64.1667C47.9284 66.7907 48.1436 69.6685 49.4151 72.1671C50.6865 74.6657 52.9101 76.5804 55.5966 77.4899ZM21.029 30.2375C20.4019 38.9616 24.8708 41.9122 27.9337 42.9177C30.6704 42.1129 33.583 42.0203 36.3878 42.6489C36.7857 42.7296 37.1643 42.8872 37.5016 43.1124C37.8388 43.3375 38.1279 43.6258 38.3519 43.9602C38.5759 44.2947 38.7303 44.6687 38.8062 45.0604C38.882 45.4521 38.8777 45.8535 38.7936 46.2413C38.7095 46.6291 38.5472 46.9954 38.3163 47.3189C38.0853 47.6423 37.7903 47.9164 37.4484 48.1251C37.1066 48.3338 36.7248 48.4729 36.3255 48.5343C35.9261 48.5957 35.5171 48.5782 35.1224 48.4827C33.1009 48.0279 30.9968 48.1553 29.0642 48.8494C27.1316 49.5436 25.453 50.7749 24.2311 52.3946C23.0092 54.0144 22.2962 55.9534 22.1782 57.9776C22.0602 60.0018 22.5422 62.0246 23.566 63.8019C24.5899 65.5792 26.1118 67.035 27.9481 67.9935C29.7843 68.952 31.8564 69.3724 33.9143 69.2037C35.9722 69.0351 37.9278 68.2847 39.5451 67.0432C41.1623 65.8016 42.3722 64.122 43.0285 62.207L49.2889 43.7163C52.4938 34.2502 41.3338 12.7957 31.4539 9.45072C28.9396 8.59947 27.6649 9.13677 26.9239 9.61055C22.3063 12.597 21.3462 25.8559 21.0296 30.2284C21.0294 30.2315 21.0292 30.2345 21.029 30.2375Z" fill="url(#paint0_linear_25_106)"/>
<path d="M21.029 30.2375C20.4019 38.9616 24.8708 41.9122 27.9337 42.9177C30.6704 42.1129 33.583 42.0203 36.3878 42.6489C36.7857 42.7296 37.1643 42.8872 37.5016 43.1124C37.8388 43.3375 38.1279 43.6258 38.3519 43.9602C38.5759 44.2947 38.7303 44.6687 38.8062 45.0604C38.882 45.4521 38.8777 45.8535 38.7936 46.2413C38.7095 46.6291 38.5472 46.9954 38.3163 47.3189C38.0853 47.6423 37.7903 47.9164 37.4484 48.1251C37.1066 48.3338 36.7248 48.4729 36.3255 48.5343C35.9261 48.5957 35.5171 48.5782 35.1224 48.4827C33.1009 48.0279 30.9968 48.1553 29.0642 48.8494C27.1316 49.5436 25.453 50.7749 24.2311 52.3946C23.0092 54.0144 22.2962 55.9534 22.1782 57.9776C22.0602 60.0018 22.5422 62.0246 23.566 63.8019C24.5899 65.5792 26.1118 67.035 27.9481 67.9935C29.7843 68.952 31.8564 69.3724 33.9143 69.2037C35.9722 69.0351 37.9278 68.2847 39.5451 67.0432C41.1623 65.8016 42.3722 64.122 43.0285 62.207L49.2889 43.7163C52.4938 34.2502 41.3338 12.7957 31.4539 9.45072C28.9396 8.59947 27.6649 9.13677 26.9239 9.61055C22.3063 12.597 21.3462 25.8559 21.0296 30.2284L21.029 30.2375Z" fill="url(#paint1_linear_25_106)"/>
<path d="M21.029 30.2375C20.4019 38.9616 24.8708 41.9122 27.9337 42.9177C30.6704 42.1129 33.583 42.0203 36.3878 42.6489C36.7857 42.7296 37.1643 42.8872 37.5016 43.1124C37.8388 43.3375 38.1279 43.6258 38.3519 43.9602C38.5759 44.2947 38.7303 44.6687 38.8062 45.0604C38.882 45.4521 38.8777 45.8535 38.7936 46.2413C38.7095 46.6291 38.5472 46.9954 38.3163 47.3189C38.0853 47.6423 37.7903 47.9164 37.4484 48.1251C37.1066 48.3338 36.7248 48.4729 36.3255 48.5343C35.9261 48.5957 35.5171 48.5782 35.1224 48.4827C33.1009 48.0279 30.9968 48.1553 29.0642 48.8494C27.1316 49.5436 25.453 50.7749 24.2311 52.3946C23.0092 54.0144 22.2962 55.9534 22.1782 57.9776C22.0602 60.0018 22.5422 62.0246 23.566 63.8019C24.5899 65.5792 26.1118 67.035 27.9481 67.9935C29.7843 68.952 31.8564 69.3724 33.9143 69.2037C35.9722 69.0351 37.9278 68.2847 39.5451 67.0432C41.1623 65.8016 42.3722 64.122 43.0285 62.207L49.2889 43.7163C52.4938 34.2502 41.3338 12.7957 31.4539 9.45072C28.9396 8.59947 27.6649 9.13677 26.9239 9.61055C22.3063 12.597 21.3462 25.8559 21.0296 30.2284L21.029 30.2375Z" fill="#FED3FF"/>
<path d="M55.5966 77.4899C58.1797 78.3155 60.9715 78.1557 63.4113 77.0428C65.8512 75.9299 67.7585 73.9462 68.7504 71.49C69.7423 69.0338 69.7453 66.2869 68.7588 63.8009C67.7723 61.3148 65.8693 59.2736 63.4319 58.0871C63.0604 57.9232 62.7249 57.6887 62.445 57.3973C62.165 57.1059 61.9463 56.7634 61.8016 56.39C61.6568 56.0166 61.589 55.6196 61.602 55.2224C61.6151 54.8252 61.7087 54.4356 61.8775 54.0765C62.0462 53.7173 62.2867 53.3959 62.5849 53.1308C62.8831 52.8658 63.233 52.6626 63.6141 52.533C63.9952 52.4033 64.4 52.35 64.8046 52.376C65.2093 52.402 65.6057 52.5069 65.9708 52.6845C68.5804 53.8839 70.8394 55.7205 72.5288 58.0162C75.5677 59.0805 80.9147 59.4494 85.713 52.1375C88.1127 48.4797 95.3982 37.3467 93.5469 32.167C93.2497 31.3417 92.56 30.1393 90.0602 29.293C80.1948 25.9529 58.2821 36.2099 55.0772 45.6761L48.8168 64.1667C47.9284 66.7907 48.1436 69.6685 49.4151 72.1671C50.6865 74.6657 52.9101 76.5804 55.5966 77.4899Z" fill="url(#paint2_linear_25_106)"/>
<path d="M55.5966 77.4899C58.1797 78.3155 60.9715 78.1557 63.4113 77.0428C65.8512 75.9299 67.7585 73.9462 68.7504 71.49C69.7423 69.0338 69.7453 66.2869 68.7588 63.8009C67.7723 61.3148 65.8693 59.2736 63.4319 58.0871C63.0604 57.9232 62.7249 57.6887 62.445 57.3973C62.165 57.1059 61.9463 56.7634 61.8016 56.39C61.6568 56.0166 61.589 55.6196 61.602 55.2224C61.6151 54.8252 61.7087 54.4356 61.8775 54.0765C62.0462 53.7173 62.2867 53.3959 62.5849 53.1308C62.8831 52.8658 63.233 52.6626 63.6141 52.533C63.9952 52.4033 64.4 52.35 64.8046 52.376C65.2093 52.402 65.6057 52.5069 65.9708 52.6845C68.5804 53.8839 70.8394 55.7205 72.5288 58.0162C75.5677 59.0805 80.9147 59.4494 85.713 52.1375C88.1127 48.4797 95.3982 37.3467 93.5469 32.167C93.2497 31.3417 92.56 30.1393 90.0602 29.293C80.1948 25.9529 58.2821 36.2099 55.0772 45.6761L48.8168 64.1667C47.9284 66.7907 48.1436 69.6685 49.4151 72.1671C50.6865 74.6657 52.9101 76.5804 55.5966 77.4899Z" fill="#FED3FF"/>
<defs>
<linearGradient id="paint0_linear_25_106" x1="70.1355" y1="-1.87945" x2="54.8713" y2="79.1345" gradientUnits="userSpaceOnUse">
<stop stop-color="#FFCFFB"/>
<stop offset="0.456731" stop-color="#FD93F4"/>
<stop offset="0.961538" stop-color="#F886EE"/>
</linearGradient>
<linearGradient id="paint1_linear_25_106" x1="70.1355" y1="-1.87945" x2="54.8713" y2="79.1345" gradientUnits="userSpaceOnUse">
<stop stop-color="#FFCFFB"/>
<stop offset="0.456731" stop-color="#FD93F4"/>
<stop offset="0.961538" stop-color="#F886EE"/>
</linearGradient>
<linearGradient id="paint2_linear_25_106" x1="70.1355" y1="-1.87945" x2="54.8713" y2="79.1345" gradientUnits="userSpaceOnUse">
<stop stop-color="#FFCFFB"/>
<stop offset="0.456731" stop-color="#FD93F4"/>
<stop offset="0.961538" stop-color="#F886EE"/>
</linearGradient>
</defs>
</svg>
