<svg width="84" height="94" viewBox="0 0 84 94" fill="none" xmlns="http://www.w3.org/2000/svg">
<g filter="url(#filter0_d_23_92)">
<path d="M36.3847 71.4053C35.5595 69.1414 33.8644 67.2967 31.6742 66.2773C29.4842 65.258 26.9775 65.147 24.7054 65.969C22.4332 66.7911 20.5812 68.4789 19.558 70.661C18.5348 72.8431 18.4238 75.3413 19.249 77.6051C20.0741 79.8686 21.7681 81.7129 23.958 82.7324C26.1482 83.7518 28.6556 83.8624 30.9279 83.0403C33.2 82.2181 35.051 80.5306 36.0742 78.3486C37.0974 76.1667 37.2097 73.669 36.3847 71.4053ZM59.2856 49.8678C59.3301 49.8477 59.3744 49.8272 59.4192 49.8076C59.3659 49.8184 59.3124 49.8274 59.259 49.8372L59.2856 49.8678ZM50.7064 33.3381C50.4343 34.6119 50.0586 35.7451 49.5965 36.5775L49.4554 36.8709L49.3407 37.1064L56.7614 45.7625L57.7753 45.7504L57.788 45.7494C58.6364 45.7451 59.4761 45.5726 60.2563 45.2406C61.0364 44.9086 61.7421 44.4244 62.3318 43.8168C62.9215 43.2092 63.3834 42.4899 63.6901 41.7019C63.9969 40.9138 64.1417 40.0722 64.1174 39.2273C64.0931 38.3825 63.9003 37.5511 63.5489 36.7819C63.1974 36.0126 62.695 35.3201 62.0713 34.747C61.4477 34.1741 60.715 33.7311 59.917 33.4442C59.1191 33.1572 58.2707 33.0323 57.4235 33.0764C57.4162 33.0768 57.4086 33.077 57.4013 33.0773L50.7064 33.3381ZM20.9145 44.6965L13.9699 49.645C13.2768 50.1388 12.6895 50.7663 12.2437 51.4898C11.798 52.2134 11.5024 53.019 11.3742 53.8583C11.2461 54.6977 11.2876 55.5545 11.4973 56.3774C11.707 57.2003 12.0806 57.9734 12.5951 58.6502C13.1095 59.3268 13.755 59.8937 14.493 60.3178C15.2312 60.7419 16.0473 61.0145 16.893 61.1191C17.7387 61.2237 18.5975 61.1584 19.4174 60.927C20.2196 60.7006 20.9683 60.3186 21.6231 59.805L22.5923 58.8986L23.0317 46.0247C22.2941 45.6271 21.5875 45.1828 20.9145 44.6965ZM32.0514 34.2334L32.0366 34.1926C31.7136 33.3064 32.1728 32.3271 33.0623 32.0053C33.9518 31.6835 34.9348 32.141 35.2578 33.0272L35.2726 33.0679C35.5955 33.954 35.1363 34.9334 34.2469 35.2553C33.3575 35.5771 32.3746 35.1194 32.0514 34.2334ZM24.1291 29.9187L24.1142 29.8779C23.7915 28.9918 24.2506 28.0123 25.1399 27.6906C26.0292 27.3691 27.0123 27.8267 27.3354 28.7125L27.3503 28.7532C27.6733 29.6393 27.2138 30.6186 26.3246 30.9406C25.4351 31.2624 24.4521 30.8049 24.1291 29.9187ZM36.4812 25.4496L36.4664 25.4089C36.1437 24.5228 36.6027 23.5433 37.4921 23.2215C38.3813 22.9 39.3644 23.3576 39.6876 24.2434L39.7024 24.2841C40.0254 25.1702 39.5659 26.1495 38.6767 26.4715C37.7872 26.7933 36.8042 26.3358 36.4812 25.4496ZM39.7496 70.6667L52.8337 65.9328C52.8308 65.9258 52.828 65.9188 52.8251 65.9119C52.7716 65.7799 52.7179 65.6478 52.669 65.5135C51.5336 62.3986 51.6867 58.9615 53.0946 55.959C53.8686 54.3085 54.9879 52.8646 56.3574 51.71L54.6524 49.7219C54.5296 49.6374 54.416 49.5379 54.3176 49.4221L47.1348 40.9661C44.9486 43.7745 41.9969 45.9396 38.5906 47.172C34.6494 48.598 30.3704 48.679 26.4127 47.4466L25.9097 62.155C28.3462 61.7816 30.8594 62.129 33.1257 63.1838C36.1392 64.5866 38.4705 67.1249 39.6059 70.2398C39.6548 70.374 39.6987 70.5096 39.7426 70.645C39.7449 70.6522 39.7473 70.6595 39.7496 70.6667ZM55.8902 64.3481C56.7153 66.6116 58.4093 68.4559 60.5992 69.4754C62.7894 70.4948 65.2968 70.6054 67.5691 69.7833C69.8412 68.9612 71.6922 67.2736 72.7154 65.0917C73.7386 62.9097 73.8509 60.412 73.0259 58.1483C72.2007 55.8844 70.5056 54.0398 68.3154 53.0203C66.1254 52.0011 63.6187 51.89 61.3466 52.712C59.0744 53.5342 57.2224 55.2219 56.1992 57.404C55.176 59.5861 55.065 62.0843 55.8902 64.3481ZM46.7664 24.033C45.3531 20.1559 42.4514 16.997 38.7004 15.2509C34.9491 13.5048 30.6548 13.315 26.7629 14.723C22.8711 16.1311 19.6997 19.0221 17.9471 22.7595C16.1948 26.4968 16.0038 30.7745 17.417 34.6518C18.3622 37.245 19.9736 39.517 22.0593 41.26C23.053 42.0903 24.1549 42.7995 25.3435 43.3672C25.4557 43.4059 25.5622 43.4558 25.6623 43.5156C29.371 45.1857 33.5905 45.3486 37.4208 43.9627C41.2056 42.5933 44.3087 39.8218 46.0884 36.2329L46.2439 35.9106L46.3031 35.7993C46.7787 34.9738 47.2927 33.0563 47.4624 30.6737C47.6291 28.3339 47.4385 25.877 46.7664 24.033ZM50.4731 8.91859C49.1783 5.36695 45.1126 3.49253 41.3285 4.86164C38.9529 5.72141 37.2552 8.31272 36.8088 10.9666C37.9494 11.2572 39.0687 11.6532 40.1505 12.1568C42.8167 13.3978 45.1296 15.2258 46.9377 17.4698C50.0502 15.7386 51.6147 12.0506 50.4731 8.91859ZM4.8394 25.4291C5.97537 28.5456 9.57388 30.3463 13.0568 29.6903C13.0042 26.8257 13.6019 23.9583 14.8422 21.3134C15.3386 20.2548 15.9287 19.252 16.6011 18.3145C14.6854 16.3974 11.7755 15.5542 9.1542 16.5025C5.43092 17.8496 3.53932 21.8617 4.8394 25.4291ZM53.6943 7.75314C55.4488 12.5665 53.1059 17.7951 48.8361 20.3173C49.2793 21.1335 49.6658 21.9849 49.9876 22.8675C50.864 25.272 51.0561 28.1787 50.8909 30.7411L56.9904 30.5042C58.2869 30.4395 59.5827 30.6317 60.8038 31.0708C62.0315 31.5123 63.158 32.1948 64.1174 33.0764C65.0768 33.958 65.8496 35.0223 66.3903 36.2058C66.931 37.3892 67.2295 38.6684 67.2668 39.9682C67.3041 41.2679 67.0797 42.5618 66.6079 43.774C66.136 44.9865 65.4257 46.0936 64.5185 47.0285C63.6913 47.8809 62.7143 48.5725 61.6388 49.0755C64.3538 48.4513 67.2163 48.7397 69.7669 49.9269C72.7804 51.3296 75.1117 53.868 76.2471 56.9828C77.3823 60.0975 77.2287 63.5341 75.821 66.5363C74.4131 69.5388 71.8653 71.8613 68.7388 72.9925C65.6123 74.1237 62.1624 73.9712 59.1488 72.5684C57.3404 71.7267 55.7808 70.474 54.5749 68.9353L40.3479 74.0827C40.4141 76.0338 40.0246 77.9916 39.1798 79.7933C37.7719 82.7958 35.2241 85.1183 32.0976 86.2495C28.9711 87.3807 25.5213 87.2282 22.5076 85.8254C19.4942 84.4227 17.1632 81.8852 16.0278 78.7705C14.8924 75.6556 15.0455 72.2184 16.4534 69.216C17.4683 67.0518 19.0768 65.2434 21.0657 63.9774C20.8307 64.0636 20.5931 64.1439 20.3514 64.2122C19.0909 64.5679 17.7711 64.6678 16.471 64.507C15.1709 64.3461 13.916 63.9281 12.7811 63.2761C11.6462 62.624 10.6539 61.7517 9.86293 60.7112C9.07197 59.6706 8.49869 58.4823 8.17631 57.2171C7.85396 55.952 7.78914 54.6352 7.98612 53.3448C8.18311 52.0545 8.63722 50.8165 9.32241 49.7042C10.0077 48.5917 10.9103 47.6268 11.976 46.8675L18.2699 42.3839C16.492 40.5135 15.0954 38.2855 14.1958 35.8172C13.8698 34.9229 13.6134 34.0111 13.427 33.0895C8.5687 33.8702 3.3747 31.4135 1.6182 26.5946C-0.348591 21.1981 2.53954 15.2632 7.98442 13.2932C11.9189 11.8698 16.0775 13.0977 18.8388 15.7241C20.7488 13.8792 23.0444 12.4359 25.5932 11.5137C28.1244 10.5979 30.795 10.236 33.4305 10.4211C34.04 6.82476 36.3301 3.03781 40.1587 1.65237C45.6323 -0.328014 51.7214 2.34116 53.6943 7.75314Z" fill="url(#paint0_linear_23_92)"/>
<path fill-rule="evenodd" clip-rule="evenodd" d="M13.9699 49.645L20.9145 44.6965C21.5875 45.1828 22.2941 45.6271 23.0317 46.0247L22.5923 58.8986L21.6231 59.805C20.9683 60.3186 20.2196 60.7006 19.4174 60.927C18.5975 61.1584 17.7387 61.2237 16.893 61.1191C16.0473 61.0145 15.2312 60.7419 14.493 60.3178C13.755 59.8937 13.1095 59.3268 12.5951 58.6502C12.0806 57.9734 11.707 57.2003 11.4973 56.3774C11.2876 55.5545 11.2461 54.6977 11.3742 53.8583C11.5024 53.019 11.798 52.2134 12.2437 51.4898C12.6895 50.7663 13.2768 50.1388 13.9699 49.645Z" fill="url(#paint1_linear_23_92)"/>
<path fill-rule="evenodd" clip-rule="evenodd" d="M52.8337 65.9328L39.7496 70.6667L39.7426 70.645C39.6987 70.5096 39.6548 70.374 39.6059 70.2398C38.4705 67.1249 36.1392 64.5866 33.1257 63.1838C30.8594 62.129 28.3462 61.7816 25.9097 62.155L26.4127 47.4466C30.3704 48.679 34.6494 48.598 38.5906 47.172C41.9969 45.9396 44.9486 43.7745 47.1348 40.9661L54.3176 49.4221C54.416 49.5379 54.5296 49.6374 54.6524 49.7219L56.3574 51.71C54.9879 52.8646 53.8686 54.3085 53.0946 55.959C51.6867 58.9615 51.5336 62.3986 52.669 65.5135C52.7179 65.6478 52.7716 65.7799 52.8251 65.9119L52.8337 65.9328Z" fill="#FED3FF"/>
<path fill-rule="evenodd" clip-rule="evenodd" d="M38.7004 15.2509C42.4514 16.997 45.3531 20.1559 46.7664 24.033C47.4385 25.877 47.6291 28.3339 47.4624 30.6737C47.2927 33.0563 46.7787 34.9738 46.3031 35.7993L46.2439 35.9106L46.0884 36.2329C44.3087 39.8218 41.2056 42.5933 37.4208 43.9627C33.5905 45.3486 29.371 45.1857 25.6623 43.5156C25.5622 43.4558 25.4557 43.4059 25.3435 43.3672C24.1549 42.7995 23.053 42.0903 22.0593 41.26C19.9736 39.517 18.3622 37.245 17.417 34.6518C16.0038 30.7745 16.1948 26.4968 17.9471 22.7595C19.6997 19.0221 22.8711 16.1311 26.7629 14.723C30.6548 13.315 34.9491 13.5048 38.7004 15.2509ZM32.0514 34.2334L32.0366 34.1926C31.7136 33.3064 32.1728 32.3271 33.0623 32.0053C33.9518 31.6835 34.9348 32.141 35.2578 33.0272L35.2726 33.0679C35.5955 33.954 35.1363 34.9334 34.2469 35.2553C33.3575 35.5771 32.3746 35.1194 32.0514 34.2334ZM24.1291 29.9187L24.1142 29.8779C23.7915 28.9918 24.2506 28.0123 25.1399 27.6906C26.0292 27.3691 27.0123 27.8267 27.3354 28.7125L27.3503 28.7532C27.6733 29.6393 27.2138 30.6186 26.3246 30.9406C25.4351 31.2624 24.4521 30.8049 24.1291 29.9187ZM36.4812 25.4496L36.4664 25.4089C36.1437 24.5228 36.6027 23.5433 37.4921 23.2215C38.3813 22.9 39.3644 23.3576 39.6876 24.2434L39.7024 24.2841C40.0254 25.1702 39.5659 26.1495 38.6767 26.4715C37.7872 26.7933 36.8042 26.3358 36.4812 25.4496Z" fill="url(#paint2_linear_23_92)"/>
<path fill-rule="evenodd" clip-rule="evenodd" d="M49.5965 36.5775C50.0586 35.7451 50.4343 34.6119 50.7064 33.3381L57.4013 33.0773L57.4235 33.0764C58.2707 33.0323 59.1191 33.1572 59.917 33.4442C60.715 33.7311 61.4477 34.1741 62.0713 34.747C62.695 35.3201 63.1974 36.0126 63.5489 36.7819C63.9003 37.5511 64.0931 38.3825 64.1174 39.2273C64.1417 40.0722 63.9969 40.9138 63.6901 41.7019C63.3834 42.4899 62.9215 43.2092 62.3318 43.8168C61.7421 44.4244 61.0364 44.9086 60.2563 45.2406C59.4761 45.5726 58.6364 45.7451 57.788 45.7494L57.7753 45.7504L56.7614 45.7625L49.3407 37.1064L49.4554 36.8709L49.5965 36.5775Z" fill="url(#paint3_linear_23_92)"/>
<path fill-rule="evenodd" clip-rule="evenodd" d="M60.5992 69.4754C58.4093 68.4559 56.7153 66.6116 55.8902 64.3481C55.065 62.0843 55.176 59.5861 56.1992 57.404C57.2224 55.2219 59.0744 53.5342 61.3466 52.712C63.6187 51.89 66.1254 52.0011 68.3154 53.0203C70.5056 54.0398 72.2007 55.8844 73.0259 58.1483C73.8509 60.412 73.7386 62.9097 72.7154 65.0917C71.6922 67.2736 69.8412 68.9612 67.5691 69.7833C65.2968 70.6054 62.7894 70.4948 60.5992 69.4754Z" fill="url(#paint4_linear_23_92)"/>
<path fill-rule="evenodd" clip-rule="evenodd" d="M31.6742 66.2773C33.8644 67.2967 35.5595 69.1414 36.3847 71.4053C37.2097 73.669 37.0974 76.1667 36.0742 78.3486C35.051 80.5306 33.2 82.2181 30.9279 83.0403C28.6556 83.8624 26.1482 83.7518 23.958 82.7324C21.7681 81.7129 20.0741 79.8686 19.249 77.6051C18.4238 75.3413 18.5348 72.8431 19.558 70.661C20.5812 68.4789 22.4332 66.7911 24.7054 65.969C26.9775 65.147 29.4842 65.258 31.6742 66.2773Z" fill="url(#paint5_linear_23_92)"/>
<path fill-rule="evenodd" clip-rule="evenodd" d="M13.0568 29.6903C9.57388 30.3463 5.97537 28.5456 4.8394 25.4291C3.53932 21.8617 5.43092 17.8496 9.1542 16.5025C11.7755 15.5542 14.6854 16.3974 16.6011 18.3145C15.9287 19.252 15.3386 20.2548 14.8422 21.3134C13.6019 23.9583 13.0042 26.8257 13.0568 29.6903Z" fill="url(#paint6_linear_23_92)"/>
<path fill-rule="evenodd" clip-rule="evenodd" d="M41.3285 4.86164C45.1126 3.49253 49.1783 5.36695 50.4731 8.91859C51.6147 12.0506 50.0502 15.7386 46.9377 17.4698C45.1296 15.2258 42.8167 13.3978 40.1505 12.1568C39.0687 11.6532 37.9494 11.2572 36.8088 10.9666C37.2552 8.31272 38.9529 5.72141 41.3285 4.86164Z" fill="url(#paint7_linear_23_92)"/>
</g>
<defs>
<filter id="filter0_d_23_92" x="0" y="0" width="84" height="94" filterUnits="userSpaceOnUse" color-interpolation-filters="sRGB">
<feFlood flood-opacity="0" result="BackgroundImageFix"/>
<feColorMatrix in="SourceAlpha" type="matrix" values="0 0 0 0 0 0 0 0 0 0 0 0 0 0 0 0 0 0 127 0" result="hardAlpha"/>
<feOffset dx="3" dy="3"/>
<feGaussianBlur stdDeviation="2"/>
<feComposite in2="hardAlpha" operator="out"/>
<feColorMatrix type="matrix" values="0 0 0 0 0 0 0 0 0 0 0 0 0 0 0 0 0 0 0.25 0"/>
<feBlend mode="normal" in2="BackgroundImageFix" result="effect1_dropShadow_23_92"/>
<feBlend mode="normal" in="SourceGraphic" in2="effect1_dropShadow_23_92" result="shape"/>
</filter>
<linearGradient id="paint0_linear_23_92" x1="22.4121" y1="13.0767" x2="47.3818" y2="82.091" gradientUnits="userSpaceOnUse">
<stop stop-color="#FFB0F8"/>
<stop offset="0.5" stop-color="#FD93F4"/>
<stop offset="0.966346" stop-color="#F886EE"/>
</linearGradient>
<linearGradient id="paint1_linear_23_92" x1="22.4121" y1="13.0767" x2="47.3818" y2="82.091" gradientUnits="userSpaceOnUse">
<stop offset="0.966346" stop-color="#FED3FF"/>
</linearGradient>
<linearGradient id="paint2_linear_23_92" x1="22.4121" y1="13.0767" x2="47.3818" y2="82.091" gradientUnits="userSpaceOnUse">
<stop offset="0.966346" stop-color="#FED3FF"/>
</linearGradient>
<linearGradient id="paint3_linear_23_92" x1="22.4121" y1="13.0767" x2="47.3818" y2="82.091" gradientUnits="userSpaceOnUse">
<stop offset="0.966346" stop-color="#FED3FF"/>
</linearGradient>
<linearGradient id="paint4_linear_23_92" x1="22.4121" y1="13.0767" x2="47.3818" y2="82.091" gradientUnits="userSpaceOnUse">
<stop offset="0.966346" stop-color="#FED3FF"/>
</linearGradient>
<linearGradient id="paint5_linear_23_92" x1="22.4121" y1="13.0767" x2="47.3818" y2="82.091" gradientUnits="userSpaceOnUse">
<stop offset="0.966346" stop-color="#FED3FF"/>
</linearGradient>
<linearGradient id="paint6_linear_23_92" x1="22.4121" y1="13.0767" x2="47.3818" y2="82.091" gradientUnits="userSpaceOnUse">
<stop offset="0.966346" stop-color="#FED3FF"/>
</linearGradient>
<linearGradient id="paint7_linear_23_92" x1="22.4121" y1="13.0767" x2="47.3818" y2="82.091" gradientUnits="userSpaceOnUse">
<stop offset="0.966346" stop-color="#FED3FF"/>
</linearGradient>
</defs>
</svg>
